# xmcd CD database file
#
# Track frame offsets:
#	150
#	12642
#	25301
#	43108
#	54064
#	68824
#	84055
#	92763
#	106688
#	119666
#	128732
#	141885
#	156718
#	168443
#	182991
#	193731
#	209999
#
# Disc length: 2938 seconds
#
# Revision: 0
# Processed by: cddbd v1.5.2PL0 Copyright (c) Steve Scherf et al.
# Submitted via: CDex 1.70beta2
#
DISCID=f60b7811
DTITLE=André van Dam - Lusie's Love
DYEAR=2002
DGENRE=Jazz
TTITLE0=Just In Time
TTITLE1=How Insensitive
TTITLE2=A Time For Love
TTITLE3=On Green Dolphin Street
TTITLE4=Side by Side - East of the Sun - Always
TTITLE5=My Funny Valentine
TTITLE6=The Preacher
TTITLE7=Ik Zing Dit Lied Voor Jou Alleen
TTITLE8=Close Enough For Love
TTITLE9=So Dance, So Samba
TTITLE10=Lusie's Love
TTITLE11=Tenderly
TTITLE12=Teach Me Tonight
TTITLE13=Falling Leaves
TTITLE14=A House Is Not A Home
TTITLE15=Blue Moon
TTITLE16=From the Time We Say Goodbye
EXTD=YEAR: 2002
EXTT0=
EXTT1=
EXTT2=
EXTT3=
EXTT4=
EXTT5=
EXTT6=
EXTT7=
EXTT8=
EXTT9=
EXTT10=
EXTT11=
EXTT12=
EXTT13=
EXTT14=
EXTT15=
EXTT16=
PLAYORDER=
